<?xml version="1.0" encoding="iso-8859-1"?>
<!-- Generator: Adobe Illustrator 22.0.1, SVG Export Plug-In . SVG Version: 6.00 Build 0)  -->
<svg version="1.1" xmlns="http://www.w3.org/2000/svg" xmlns:xlink="http://www.w3.org/1999/xlink" x="0px" y="0px"
	 viewBox="0 0 64 64" style="enable-background:new 0 0 64 64;" xml:space="preserve">
<g id="_x37_">
	<path style="fill:#FC8000;" d="M52.454,43.546C52.454,54.84,43.297,64,32,64c-10.492,0-19.14-7.902-20.317-18.077
		c-0.09-0.778-0.137-1.574-0.137-2.377c0-5.792,2.692-9.531,4.979-13.375c2.365-3.969,5.435-7.67,9.322-12.318
		C33.497,8.706,27.812,0,27.812,0s6.515,5.879,10.499,16.356c0.721,1.896,1.142,3.754,1.352,5.528
		c0.11,0.948,0.16,1.868,0.162,2.759c0.01,6.543-2.587,11.35-2.667,11.499c5.231-2.223,6.555-6.186,6.703-9.262
		C49.062,30.587,52.454,36.671,52.454,43.546z"/>
	<g>
		<path style="fill:#FFAD5C;" d="M14.934,45.923c-0.09-0.778-0.137-1.574-0.137-2.377c0-5.792,2.691-9.531,4.979-13.375
			c2.365-3.969,5.435-7.67,9.322-12.318c3.532-4.224,4.22-8.351,3.938-11.572C30.239,2.193,27.812,0,27.812,0
			s5.685,8.706-1.966,17.853c-3.886,4.647-6.957,8.349-9.322,12.318c-2.287,3.844-4.979,7.583-4.979,13.375
			c0,0.803,0.047,1.599,0.137,2.377C12.86,56.098,21.508,64,32,64c0.544,0,1.082-0.028,1.615-0.069
			C23.873,63.159,16.049,55.563,14.934,45.923z"/>
	</g>
	<path style="fill:#FED600;" d="M41.156,52.772c0,5.056-4.099,9.156-9.156,9.156c-4.696,0-8.567-3.537-9.094-8.092
		c-0.04-0.348-0.061-0.705-0.061-1.064c0-2.593,1.205-4.266,2.229-5.987c1.058-1.776,2.433-3.433,4.173-5.514
		c3.424-4.094,0.88-7.991,0.88-7.991s2.916,2.632,4.7,7.321c0.323,0.849,0.511,1.68,0.605,2.474
		c0.049,0.424,0.071,0.836,0.073,1.235c0.004,2.929-1.158,5.08-1.194,5.147c2.341-0.995,2.934-2.769,3-4.146
		C39.637,46.971,41.156,49.694,41.156,52.772z"/>
</g>
<g id="Layer_1">
</g>
</svg>
